{
	"asset":{
		"generator":"Khronos glTF Blender I/O v4.3.47",
		"version":"2.0"
	},
	"scene":0,
	"scenes":[
		{
			"name":"Scene",
			"nodes":[
				0,
				1
			]
		}
	],
	"nodes":[
		{
			"mesh":0,
			"name":"can",
			"scale":[
				1.0101921558380127,
				1.0101921558380127,
				1.0101921558380127
			],
			"translation":[
				0.7992879152297974,
				3.7819883823394775,
				-0.10288310050964355
			]
		},
		{
			"mesh":1,
			"name":"key",
			"scale":[
				1.0101921558380127,
				1.0120524168014526,
				1.0101921558380127
			],
			"translation":[
				0.8733068704605103,
				3.9860470294952393,
				-0.09109091758728027
			]
		}
	],
	"materials":[
		{
			"doubleSided":true,
			"name":"Material.004",
			"pbrMetallicRoughness":{
				"baseColorFactor":[
					0.800000011920929,
					0.800000011920929,
					0.800000011920929,
					1
				],
				"metallicFactor":0.8999999761581421,
				"roughnessFactor":0.20000000298023224
			}
		},
		{
			"doubleSided":true,
			"name":"Material.001",
			"pbrMetallicRoughness":{
				"baseColorTexture":{
					"index":0
				},
				"metallicFactor":0,
				"roughnessFactor":0.5
			}
		},
		{
			"doubleSided":true,
			"name":"Material",
			"pbrMetallicRoughness":{
				"baseColorFactor":[
					0.800000011920929,
					0.800000011920929,
					0.800000011920929,
					1
				],
				"roughnessFactor":0.5
			}
		}
	],
	"meshes":[
		{
			"name":"Mesh",
			"primitives":[
				{
					"attributes":{
						"POSITION":0,
						"NORMAL":1,
						"TEXCOORD_0":2
					},
					"indices":3,
					"material":0
				},
				{
					"attributes":{
						"POSITION":4,
						"NORMAL":5,
						"TEXCOORD_0":6
					},
					"indices":7,
					"material":1
				}
			]
		},
		{
			"name":"Mesh",
			"primitives":[
				{
					"attributes":{
						"POSITION":8,
						"NORMAL":9,
						"TEXCOORD_0":10
					},
					"indices":11,
					"material":2
				}
			]
		}
	],
	"textures":[
		{
			"sampler":0,
			"source":0
		}
	],
	"images":[
		{
			"mimeType":"image/png",
			"name":"grape (1)",
			"uri":"grape%201.png"
		}
	],
	"accessors":[
		{
			"bufferView":0,
			"componentType":5126,
			"count":14058,
			"max":[
				-0.20592890679836273,
				-2.488240957260132,
				0.5815288424491882
			],
			"min":[
				-1.3663835525512695,
				-4.916688919067383,
				-0.5789280533790588
			],
			"type":"VEC3"
		},
		{
			"bufferView":1,
			"componentType":5126,
			"count":14058,
			"type":"VEC3"
		},
		{
			"bufferView":2,
			"componentType":5126,
			"count":14058,
			"type":"VEC2"
		},
		{
			"bufferView":3,
			"componentType":5123,
			"count":82512,
			"type":"SCALAR"
		},
		{
			"bufferView":4,
			"componentType":5126,
			"count":19629,
			"max":[
				-0.18931671977043152,
				-2.5379929542541504,
				0.5981409549713135
			],
			"min":[
				-1.38299560546875,
				-4.90534782409668,
				-0.5955402255058289
			],
			"type":"VEC3"
		},
		{
			"bufferView":5,
			"componentType":5126,
			"count":19629,
			"type":"VEC3"
		},
		{
			"bufferView":6,
			"componentType":5126,
			"count":19629,
			"type":"VEC2"
		},
		{
			"bufferView":7,
			"componentType":5123,
			"count":109440,
			"type":"SCALAR"
		},
		{
			"bufferView":8,
			"componentType":5126,
			"count":33266,
			"max":[
				-0.6999987363815308,
				-2.723919153213501,
				0.10596306622028351
			],
			"min":[
				-1.1413190364837646,
				-2.766078233718872,
				-0.12226440012454987
			],
			"type":"VEC3"
		},
		{
			"bufferView":9,
			"componentType":5126,
			"count":33266,
			"type":"VEC3"
		},
		{
			"bufferView":10,
			"componentType":5126,
			"count":33266,
			"type":"VEC2"
		},
		{
			"bufferView":11,
			"componentType":5123,
			"count":51456,
			"type":"SCALAR"
		}
	],
	"bufferViews":[
		{
			"buffer":0,
			"byteLength":168696,
			"byteOffset":0,
			"target":34962
		},
		{
			"buffer":0,
			"byteLength":168696,
			"byteOffset":168696,
			"target":34962
		},
		{
			"buffer":0,
			"byteLength":112464,
			"byteOffset":337392,
			"target":34962
		},
		{
			"buffer":0,
			"byteLength":165024,
			"byteOffset":449856,
			"target":34963
		},
		{
			"buffer":0,
			"byteLength":235548,
			"byteOffset":614880,
			"target":34962
		},
		{
			"buffer":0,
			"byteLength":235548,
			"byteOffset":850428,
			"target":34962
		},
		{
			"buffer":0,
			"byteLength":157032,
			"byteOffset":1085976,
			"target":34962
		},
		{
			"buffer":0,
			"byteLength":218880,
			"byteOffset":1243008,
			"target":34963
		},
		{
			"buffer":0,
			"byteLength":399192,
			"byteOffset":1461888,
			"target":34962
		},
		{
			"buffer":0,
			"byteLength":399192,
			"byteOffset":1861080,
			"target":34962
		},
		{
			"buffer":0,
			"byteLength":266128,
			"byteOffset":2260272,
			"target":34962
		},
		{
			"buffer":0,
			"byteLength":102912,
			"byteOffset":2526400,
			"target":34963
		}
	],
	"samplers":[
		{
			"magFilter":9729,
			"minFilter":9987,
			"wrapS":33071,
			"wrapT":33071
		}
	],
	"buffers":[
		{
			"byteLength":2629312,
			"uri":"grap.bin"
		}
	]
}
